<svg id="untitled_10_" data-name="untitled (10)" xmlns="http://www.w3.org/2000/svg" width="54" height="54" viewBox="0 0 54 54">
  <g id="Grupo_22" data-name="Grupo 22">
    <g id="Grupo_21" data-name="Grupo 21">
      <g id="Grupo_19" data-name="Grupo 19">
        <path id="Caminho_5" data-name="Caminho 5" d="M18.8,14.483l-.8.709-.757.775-.718.834-.681.888-.645.937-.612.977-.581,1.013-.55,1.043-.522,1.066-.5,1.083L11.974,24.9,11.525,26,11.1,27.1l-.408,1.09L10.3,29.266l-.375,1.058-.362,1.032-.35,1-.34.963-.331.918-.325.869-.321.813-.316.751-.316.682-.316.608-.319.527-.323.44-.329.348-.337.249-.347.144-.358.033-.371-.084-.386-.208-.4-.338L3.351,38.6l-.442-.614-.464-.762-.488-.915-.514-1.076-.477-1.1L.59,33.148l-.283-.876L.117,31.5l-.1-.675L0,30.241l.067-.494.144-.413L.431,29l.292-.263.361-.2.425-.135L2,28.322l.546-.029.6.016.652.057.7.092.746.122.786.146.825.165.86.179.892.188.919.192.943.19.965.182.983.17,1,.153,1.008.13,1.016.1,1.02.068,1.022.03,1.018-.013,1.013-.063,1-.117.991-.177.975-.241.956-.312.933-.387.907-.467.878-.553L27,27.5l.807-.723.772-.8.739-.866.708-.926.677-.981.648-1.03.621-1.072L32.565,20l.571-1.136.547-1.157.527-1.173.505-1.181.488-1.183.47-1.18.455-1.168.44-1.151L37,9.547l.416-1.1.407-1.058.4-1.015.391-.964.386-.907.381-.843.38-.774.378-.7.378-.613.381-.523.384-.426L41.662.31,42.057.1l.4-.1.412.025.423.156.435.291.448.435.462.584.48.739.5.9L46.133,4.2l.473,1.1.369,1,.267.9.168.8.075.714-.016.627-.1.548-.186.471-.265.4-.34.333-.413.271-.48.214-.544.162-.606.115-.662.072-.716.035H42.39l-.811-.028-.853-.051-.892-.069-.926-.084-.958-.093-.985-.1-1.008-.1-1.029-.092-1.045-.082-1.056-.067-1.066-.048-1.071-.024-1.072.006-1.07.04-1.063.078-1.054.122-1.04.169-1.023.223-1,.28-.977.342-.948.41-.917.482-.881.559h0Z" fill="#fff"/>
      </g>
      <g id="Grupo_20" data-name="Grupo 20" transform="translate(6.507 14.291)">
        <path id="Caminho_6" data-name="Caminho 6" d="M96.772,183.224c-11.492,7.979-11.171,36.82-18.2,21.385s13.22.89,24.711-7.089,12.949-39.374,19.978-23.94S108.263,175.244,96.772,183.224Z" transform="translate(-77.124 -169.371)" fill="#fff"/>
      </g>
    </g>
  </g>
</svg>
