<svg id="_25419" data-name="25419" xmlns="http://www.w3.org/2000/svg" width="314" height="280.357" viewBox="0 0 314 280.357">
  <path id="Caminho_7" data-name="Caminho 7" d="M3.327,214.722l89.715,89.714a11.216,11.216,0,0,0,19.1-7.886V251.692h39.25q124.939,0,153.323-70.616Q314,157.6,314,122.727q0-29.085-22.253-79.025-.525-1.229-1.839-4.2t-2.365-5.257a19.912,19.912,0,0,0-2.28-3.852q-2.1-2.98-4.906-2.982a5.118,5.118,0,0,0-4.119,1.752,6.534,6.534,0,0,0-1.488,4.377,35.679,35.679,0,0,0,.439,4.645,36.244,36.244,0,0,1,.439,4.117q.877,11.911.877,21.55a149.149,149.149,0,0,1-3.066,31.714,95.229,95.229,0,0,1-8.5,24.269,60.955,60.955,0,0,1-14.018,17.7,82.259,82.259,0,0,1-18.484,12.178,100.222,100.222,0,0,1-23.306,7.448,222.189,222.189,0,0,1-26.984,3.768q-13.581,1.052-30.753,1.05h-39.25V117.115a11.153,11.153,0,0,0-19.1-7.885L3.329,198.947a11.011,11.011,0,0,0,0,15.775Z" transform="translate(0 -27.408)" fill="#42d152"/>
</svg>
