<svg xmlns="http://www.w3.org/2000/svg" width="780" height="651" viewBox="0 0 780 651">
  <g id="Grupo_60" data-name="Grupo 60" transform="translate(-6849 780)">
    <path id="União_60" data-name="União 60" d="M267.492,138.673l-16.518-4.283,6.055-6.056L230.822,102.44V122.4H226.34V75.9H0V71.473H226.34V29.4h4.482V44.175L275.529,0,278.7,3.132,231.159,50.1l-.338-.334v46.7l.145-.143,29.211,28.863,6.452-6.452,4.471,17.245,7.4,7.316-3.169,3.132Z" transform="translate(6974.108 -497.187)"/>
    <path id="União_61" data-name="União 61" d="M0,223V0H4V223Z" transform="translate(7249 -715)"/>
    <path id="União_62" data-name="União 62" d="M0,223V0H4V223Z" transform="translate(7249 -354)"/>
    <path id="União_64" data-name="União 64" d="M0,295V0H4V295Z" transform="translate(6971 -716)"/>
    <g id="Retângulo_166" data-name="Retângulo 166" transform="translate(6959 -635)" fill="#fff" stroke="#000" stroke-width="1">
      <rect width="28" height="61" stroke="none"/>
      <rect x="0.5" y="0.5" width="27" height="60" fill="none"/>
    </g>
    <rect id="Retângulo_167" data-name="Retângulo 167" width="93" height="4" transform="translate(7487 -423)"/>
    <rect id="Retângulo_168" data-name="Retângulo 168" width="93" height="4" transform="translate(7487 -463)"/>
    <rect id="Retângulo_169" data-name="Retângulo 169" width="72" height="4" transform="translate(7498 -443)"/>
    <rect id="Retângulo_170" data-name="Retângulo 170" width="72" height="5" transform="translate(7498 -404)"/>
    <rect id="Retângulo_171" data-name="Retângulo 171" width="4" height="253" transform="translate(7529 -716)"/>
    <rect id="Retângulo_172" data-name="Retângulo 172" width="4" height="268" transform="translate(7529 -399)"/>
    <rect id="Retângulo_173" data-name="Retângulo 173" width="4" height="284" transform="translate(7533 -133) rotate(90)"/>
    <rect id="Retângulo_174" data-name="Retângulo 174" width="4" height="562" transform="translate(7533 -720) rotate(90)"/>
    <text id="RC" transform="translate(7194 -619)" fill="#707070" font-size="22" font-family="SegoeUI, Segoe UI"><tspan x="0" y="0">RC</tspan></text>
    <text id="RB" transform="translate(7004 -598)" fill="#707070" font-size="22" font-family="SegoeUI, Segoe UI"><tspan x="0" y="0">RB</tspan></text>
    <path id="União_65" data-name="União 65" d="M0,140v-3.566H.449c36.92,0,66.956-29.8,66.956-66.433A65.912,65.912,0,0,0,49.344,24.659l-5.569,5.525-3.553-13.6A66.95,66.95,0,0,0,.449,3.567H0V0H.449A70.58,70.58,0,0,1,27.911,5.5,70.729,70.729,0,0,1,39.9,11.955q1.522,1.02,2.992,2.121l13.6,3.5-4.577,4.541a70.625,70.625,0,0,1,7.043,8.749,69.825,69.825,0,0,1,6.5,11.89,69.734,69.734,0,0,1,0,54.494,69.885,69.885,0,0,1-6.5,11.891,70.564,70.564,0,0,1-8.616,10.36A70.979,70.979,0,0,1,39.9,128.045,70.778,70.778,0,0,1,27.911,134.5,70.587,70.587,0,0,1,.449,140Z" transform="translate(7264 -493)"/>
    <path id="Subtração_46" data-name="Subtração 46" d="M87,87h-4.4c0-.185,0-.366,0-.551A82.138,82.138,0,0,0,.55,4.4l-.55,0V0L.27,0H.55A85.889,85.889,0,0,1,34.2,6.794a86.47,86.47,0,0,1,14.685,7.97A87.064,87.064,0,0,1,61.679,25.321,86.993,86.993,0,0,1,72.236,38.115,86.343,86.343,0,0,1,80.207,52.8,85.907,85.907,0,0,1,87,86.449q0,.275,0,.55Z" transform="translate(7227 -314) rotate(180)"/>
    <path id="Polígono_51" data-name="Polígono 51" d="M11.071,0,22.143,18.821H0Z" transform="translate(7133.032 -377.015) rotate(-19)"/>
    <text id="VBE" transform="translate(7139 -304)" fill="#707070" font-size="22" font-family="SegoeUI, Segoe UI"><tspan x="0" y="0">VBE</tspan></text>
    <path id="Subtração_49" data-name="Subtração 49" d="M87.462,0H83.034c0,.186,0,.368,0,.554A82.576,82.576,0,0,1,.553,83.036l-.553,0v4.428l.271,0H.553a86.345,86.345,0,0,0,33.83-6.831,86.931,86.931,0,0,0,14.763-8.012A87.528,87.528,0,0,0,62.008,62.009,87.457,87.457,0,0,0,72.621,49.146a86.8,86.8,0,0,0,8.013-14.763A86.367,86.367,0,0,0,87.464.554q0-.277,0-.553Z" transform="translate(6998.864 -604.518) rotate(135)"/>
    <path id="Polígono_52" data-name="Polígono 52" d="M11.071,0,22.143,18.821H0Z" transform="translate(6908.442 -639.708) rotate(17)"/>
    <text id="VB" transform="translate(6849 -595)" fill="#707070" font-size="22" font-family="SegoeUI, Segoe UI"><tspan x="0" y="0">VB</tspan></text>
    <text id="Vcc" transform="translate(7596 -419)" fill="#707070" font-size="22" font-family="SegoeUI, Segoe UI"><tspan x="0" y="0">Vcc</tspan></text>
    <path id="União_66" data-name="União 66" d="M34.079,0l-.393.39A86.507,86.507,0,0,0,9.823,45.246a87.4,87.4,0,0,0-.412,30.913L0,79.036,13.347,91.281q.592,1.648,1.249,3.268A86.343,86.343,0,0,0,33.686,123.3l.2.2.193.19,3.132-3.132-.393-.39A81.974,81.974,0,0,1,17.249,88.957l3.926-16.4L13.72,74.841a82.427,82.427,0,0,1,23.1-71.32c.132-.132.26-.26.393-.39L34.08,0h0Z" transform="translate(7305.507 -567.03) rotate(180)"/>
    <text id="VRC" transform="translate(7316 -621)" fill="#707070" font-size="22" font-family="SegoeUI, Segoe UI"><tspan x="0" y="0">VRC</tspan></text>
    <path id="União_67" data-name="União 67" d="M0,18.822H9.114V56.761h4.428V18.822h8.6L11.071,0Z" transform="translate(7167.194 -454.905) rotate(90)"/>
    <path id="União_68" data-name="União 68" d="M0,37.939H9.114V0h4.428V37.939h8.6L11.071,56.761Z" transform="translate(7220.743 -554.143)"/>
    <path id="União_69" data-name="União 69" d="M0,37.939H9.114V0h4.428V37.939h8.6L11.071,56.761Z" transform="translate(7257.279 -334.929)"/>
    <path id="União_70" data-name="União 70" d="M0,37.939H9.114V0h4.428V37.939h8.6L11.071,56.761Z" transform="translate(7325.516 -752.727) rotate(90)"/>
    <text id="VCE" transform="translate(7346 -415)" fill="#707070" font-size="22" font-family="SegoeUI, Segoe UI"><tspan x="0" y="0">VCE</tspan></text>
    <text id="IE" transform="translate(7284 -304)" fill="#707070" font-size="22" font-family="SegoeUI, Segoe UI"><tspan x="0" y="0">IE</tspan></text>
    <text id="IB" transform="translate(7117 -460)" fill="#707070" font-size="22" font-family="SegoeUI, Segoe UI"><tspan x="0" y="0">IB</tspan></text>
    <text id="IC" transform="translate(7193 -519)" fill="#707070" font-size="22" font-family="SegoeUI, Segoe UI"><tspan x="0" y="0">IC</tspan></text>
    <text id="I" transform="translate(7293 -756)" fill="#707070" font-size="22" font-family="SegoeUI, Segoe UI"><tspan x="0" y="0">I</tspan></text>
    <g id="Grupo_59" data-name="Grupo 59" transform="translate(7768.516 -1875.516) rotate(90)">
      <path id="Subtração_5" data-name="Subtração 5" d="M87,87h-4.4c0-.185,0-.366,0-.551A82.138,82.138,0,0,0,.55,4.4l-.55,0V0L.27,0H.55A85.889,85.889,0,0,1,34.2,6.794a86.47,86.47,0,0,1,14.685,7.97A87.064,87.064,0,0,1,61.679,25.321,86.993,86.993,0,0,1,72.236,38.115,86.343,86.343,0,0,1,80.207,52.8,85.907,85.907,0,0,1,87,86.449q0,.275,0,.55Z" transform="translate(1401 669) rotate(180)"/>
      <path id="Polígono_3" data-name="Polígono 3" d="M11.071,0,22.143,18.821H0Z" transform="translate(1307.032 605.985) rotate(-19)"/>
    </g>
    <text id="VCB" transform="translate(7076 -544)" fill="#707070" font-size="22" font-family="SegoeUI, Segoe UI"><tspan x="0" y="0">VCB</tspan></text>
    <g id="Retângulo_186" data-name="Retângulo 186" transform="translate(7237 -656)" fill="#fff" stroke="#000" stroke-width="1">
      <rect width="28" height="61" stroke="none"/>
      <rect x="0.5" y="0.5" width="27" height="60" fill="none"/>
    </g>
  </g>
</svg>
