<svg xmlns="http://www.w3.org/2000/svg" width="793" height="651" viewBox="0 0 793 651">
  <g id="Grupo_64" data-name="Grupo 64" transform="translate(-4980 -4750)">
    <path id="União_85" data-name="União 85" d="M267.492,138.673l-16.518-4.283,6.055-6.056L230.822,102.44V122.4H226.34V75.9H0V71.473H226.34V29.4h4.482V44.175L275.529,0,278.7,3.132,231.159,50.1l-.338-.334v46.7l.145-.143,29.211,28.863,6.452-6.452,4.471,17.245,7.4,7.316-3.169,3.132Z" transform="translate(5118.108 5032.813)"/>
    <path id="União_86" data-name="União 86" d="M0,223V0H4V223Z" transform="translate(5393 4814)"/>
    <g id="Retângulo_224" data-name="Retângulo 224" transform="translate(5381 4874)" fill="#fff" stroke="#000" stroke-width="1">
      <rect width="28" height="61" stroke="none"/>
      <rect x="0.5" y="0.5" width="27" height="60" fill="none"/>
    </g>
    <path id="União_87" data-name="União 87" d="M0,223V0H4V223Z" transform="translate(5393 5176)"/>
    <g id="Retângulo_227" data-name="Retângulo 227" transform="translate(5381 5295)" fill="#fff" stroke="#000" stroke-width="1">
      <rect width="28" height="61" stroke="none"/>
      <rect x="0.5" y="0.5" width="27" height="60" fill="none"/>
    </g>
    <path id="União_89" data-name="União 89" d="M0,529V0H4V529Z" transform="translate(5115 4814)"/>
    <g id="Retângulo_231" data-name="Retângulo 231" transform="translate(5103 4895)" fill="#fff" stroke="#000" stroke-width="1">
      <rect width="28" height="61" stroke="none"/>
      <rect x="0.5" y="0.5" width="27" height="60" fill="none"/>
    </g>
    <rect id="Retângulo_232" data-name="Retângulo 232" width="4" height="81" transform="translate(5115 5318)"/>
    <g id="Retângulo_233" data-name="Retângulo 233" transform="translate(5103 5257)" fill="#fff" stroke="#000" stroke-width="1">
      <rect width="28" height="61" stroke="none"/>
      <rect x="0.5" y="0.5" width="27" height="60" fill="none"/>
    </g>
    <rect id="Retângulo_234" data-name="Retângulo 234" width="93" height="4" transform="translate(5631 5107)"/>
    <rect id="Retângulo_235" data-name="Retângulo 235" width="93" height="4" transform="translate(5631 5067)"/>
    <rect id="Retângulo_236" data-name="Retângulo 236" width="72" height="4" transform="translate(5642 5087)"/>
    <rect id="Retângulo_237" data-name="Retângulo 237" width="72" height="5" transform="translate(5642 5126)"/>
    <rect id="Retângulo_238" data-name="Retângulo 238" width="4" height="253" transform="translate(5673 4814)"/>
    <rect id="Retângulo_239" data-name="Retângulo 239" width="4" height="268" transform="translate(5673 5131)"/>
    <rect id="Retângulo_240" data-name="Retângulo 240" width="4" height="562" transform="translate(5677 5397) rotate(90)"/>
    <rect id="Retângulo_241" data-name="Retângulo 241" width="4" height="562" transform="translate(5677 4810) rotate(90)"/>
    <text id="RC" transform="translate(5338 4911)" fill="#707070" font-size="22" font-family="SegoeUI, Segoe UI"><tspan x="0" y="0">RC</tspan></text>
    <text id="RB1" transform="translate(5148 4932)" fill="#707070" font-size="22" font-family="SegoeUI, Segoe UI"><tspan x="0" y="0">RB1</tspan></text>
    <text id="RB2" transform="translate(5141 5297)" fill="#707070" font-size="22" font-family="SegoeUI, Segoe UI"><tspan x="0" y="0">RB2</tspan></text>
    <path id="União_90" data-name="União 90" d="M0,140v-3.566H.449c36.92,0,66.956-29.8,66.956-66.433A65.912,65.912,0,0,0,49.344,24.659l-5.569,5.525-3.553-13.6A66.95,66.95,0,0,0,.449,3.567H0V0H.449A70.58,70.58,0,0,1,27.911,5.5,70.729,70.729,0,0,1,39.9,11.955q1.522,1.02,2.992,2.121l13.6,3.5-4.577,4.541a70.625,70.625,0,0,1,7.043,8.749,69.825,69.825,0,0,1,6.5,11.89,69.734,69.734,0,0,1,0,54.494,69.885,69.885,0,0,1-6.5,11.891,70.564,70.564,0,0,1-8.616,10.36A70.979,70.979,0,0,1,39.9,128.045,70.778,70.778,0,0,1,27.911,134.5,70.587,70.587,0,0,1,.449,140Z" transform="translate(5408 5037)"/>
    <path id="Subtração_71" data-name="Subtração 71" d="M87,87h-4.4c0-.185,0-.366,0-.551A82.138,82.138,0,0,0,.55,4.4l-.55,0V0L.27,0H.55A85.889,85.889,0,0,1,34.2,6.794a86.47,86.47,0,0,1,14.685,7.97A87.064,87.064,0,0,1,61.679,25.321,86.993,86.993,0,0,1,72.236,38.115,86.343,86.343,0,0,1,80.207,52.8,85.907,85.907,0,0,1,87,86.449q0,.275,0,.55Z" transform="translate(5371 5216) rotate(180)"/>
    <path id="Polígono_68" data-name="Polígono 68" d="M11.071,0,22.143,18.821H0Z" transform="translate(5277.032 5152.985) rotate(-19)"/>
    <text id="VBE" transform="translate(5283 5226)" fill="#707070" font-size="22" font-family="SegoeUI, Segoe UI"><tspan x="0" y="0">VBE</tspan></text>
    <path id="Subtração_74" data-name="Subtração 74" d="M87.462,0H83.034c0,.186,0,.368,0,.554A82.576,82.576,0,0,1,.553,83.036l-.553,0v4.428l.271,0H.553a86.345,86.345,0,0,0,33.83-6.831,86.931,86.931,0,0,0,14.763-8.012A87.528,87.528,0,0,0,62.008,62.009,87.457,87.457,0,0,0,72.621,49.146a86.8,86.8,0,0,0,8.013-14.763A86.367,86.367,0,0,0,87.464.554q0-.277,0-.553Z" transform="translate(5149.507 5287.518) rotate(135)"/>
    <path id="Polígono_69" data-name="Polígono 69" d="M11.071,0,22.143,18.821H0Z" transform="translate(5059.085 5252.328) rotate(17)"/>
    <text id="VRB2" transform="translate(4980 5289)" fill="#707070" font-size="22" font-family="SegoeUI, Segoe UI"><tspan x="0" y="0">VRB2</tspan></text>
    <path id="Subtração_77" data-name="Subtração 77" d="M87.462,0H83.034c0,.186,0,.368,0,.554A82.576,82.576,0,0,1,.553,83.036l-.553,0v4.428l.271,0H.553a86.345,86.345,0,0,0,33.83-6.831,86.931,86.931,0,0,0,14.763-8.012A87.528,87.528,0,0,0,62.008,62.009,87.457,87.457,0,0,0,72.621,49.146a86.8,86.8,0,0,0,8.013-14.763A86.367,86.367,0,0,0,87.464.554q0-.277,0-.553Z" transform="translate(5142.864 4925.482) rotate(135)"/>
    <path id="Polígono_70" data-name="Polígono 70" d="M11.071,0,22.143,18.821H0Z" transform="translate(5052.442 4890.292) rotate(17)"/>
    <text id="VRB1" transform="translate(5012 4935)" fill="#707070" font-size="22" font-family="SegoeUI, Segoe UI"><tspan x="-25.647" y="0">VRB1</tspan></text>
    <text id="Vcc" transform="translate(5740 5111)" fill="#707070" font-size="22" font-family="SegoeUI, Segoe UI"><tspan x="0" y="0">Vcc</tspan></text>
    <path id="União_91" data-name="União 91" d="M34.079,0l-.393.39A86.507,86.507,0,0,0,9.823,45.246a87.4,87.4,0,0,0-.412,30.913L0,79.036,13.347,91.281q.592,1.648,1.249,3.268A86.343,86.343,0,0,0,33.686,123.3l.2.2.193.19,3.132-3.132-.393-.39A81.974,81.974,0,0,1,17.249,88.957l3.926-16.4L13.72,74.841a82.427,82.427,0,0,1,23.1-71.32c.132-.132.26-.26.393-.39L34.08,0h0Z" transform="translate(5449.507 4962.97) rotate(180)"/>
    <text id="VRC" transform="translate(5460 4909)" fill="#707070" font-size="22" font-family="SegoeUI, Segoe UI"><tspan x="0" y="0">VRC</tspan></text>
    <path id="União_92" data-name="União 92" d="M34.079,0l-.393.39A86.507,86.507,0,0,0,9.823,45.246a87.4,87.4,0,0,0-.412,30.913L0,79.036,13.347,91.281q.592,1.648,1.249,3.268A86.343,86.343,0,0,0,33.686,123.3l.2.2.193.19,3.132-3.132-.393-.39A81.974,81.974,0,0,1,17.249,88.957l3.926-16.4L13.72,74.841a82.427,82.427,0,0,1,23.1-71.32c.132-.132.26-.26.393-.39L34.08,0h0Z" transform="translate(5449.507 5384.792) rotate(180)"/>
    <text id="VRE" transform="translate(5467 5323)" fill="#707070" font-size="22" font-family="SegoeUI, Segoe UI"><tspan x="0" y="0">VRE</tspan></text>
    <path id="União_93" data-name="União 93" d="M0,37.939H9.114V0h4.428V37.939h8.6L11.071,56.761Z" transform="translate(5086.85 5022.357)"/>
    <path id="União_94" data-name="União 94" d="M0,37.939H9.114V0h4.428V37.939h8.6L11.071,56.761Z" transform="translate(5085.743 5126.429)"/>
    <path id="União_95" data-name="União 95" d="M0,18.822H9.114V56.761h4.428V18.822h8.6L11.071,0Z" transform="translate(5311.194 5075.095) rotate(90)"/>
    <path id="União_96" data-name="União 96" d="M0,37.939H9.114V0h4.428V37.939h8.6L11.071,56.761Z" transform="translate(5364.743 4975.857)"/>
    <path id="União_97" data-name="União 97" d="M0,37.939H9.114V0h4.428V37.939h8.6L11.071,56.761Z" transform="translate(5401.279 5195.071)"/>
    <path id="União_98" data-name="União 98" d="M0,37.939H9.114V0h4.428V37.939h8.6L11.071,56.761Z" transform="translate(5469.516 4777.273) rotate(90)"/>
    <text id="VCE" transform="translate(5490 5115)" fill="#707070" font-size="22" font-family="SegoeUI, Segoe UI"><tspan x="0" y="0">VCE</tspan></text>
    <text id="RE" transform="translate(5346 5328)" fill="#707070" font-size="22" font-family="SegoeUI, Segoe UI"><tspan x="0" y="0">RE</tspan></text>
    <text id="IE" transform="translate(5428 5226)" fill="#707070" font-size="22" font-family="SegoeUI, Segoe UI"><tspan x="0" y="0">IE</tspan></text>
    <text id="IB" transform="translate(5261 5070)" fill="#707070" font-size="22" font-family="SegoeUI, Segoe UI"><tspan x="0" y="0">IB</tspan></text>
    <text id="IB1" transform="translate(5051 5063)" fill="#707070" font-size="22" font-family="SegoeUI, Segoe UI"><tspan x="0" y="0">IB1</tspan></text>
    <text id="IB2" transform="translate(5048 5150)" fill="#707070" font-size="22" font-family="SegoeUI, Segoe UI"><tspan x="0" y="0">IB2</tspan></text>
    <text id="IC" transform="translate(5337 5011)" fill="#707070" font-size="22" font-family="SegoeUI, Segoe UI"><tspan x="0" y="0">IC</tspan></text>
    <text id="I" transform="translate(5437 4774)" fill="#707070" font-size="22" font-family="SegoeUI, Segoe UI"><tspan x="0" y="0">I</tspan></text>
    <g id="Grupo_63" data-name="Grupo 63" transform="translate(5912.516 3654.484) rotate(90)">
      <path id="Subtração_5" data-name="Subtração 5" d="M87,87h-4.4c0-.185,0-.366,0-.551A82.138,82.138,0,0,0,.55,4.4l-.55,0V0L.27,0H.55A85.889,85.889,0,0,1,34.2,6.794a86.47,86.47,0,0,1,14.685,7.97A87.064,87.064,0,0,1,61.679,25.321,86.993,86.993,0,0,1,72.236,38.115,86.343,86.343,0,0,1,80.207,52.8,85.907,85.907,0,0,1,87,86.449q0,.275,0,.55Z" transform="translate(1401 669) rotate(180)"/>
      <path id="Polígono_3" data-name="Polígono 3" d="M11.071,0,22.143,18.821H0Z" transform="translate(1307.032 605.985) rotate(-19)"/>
    </g>
    <text id="VCB" transform="translate(5220 4986)" fill="#707070" font-size="22" font-family="SegoeUI, Segoe UI"><tspan x="0" y="0">VCB</tspan></text>
  </g>
</svg>
